<?xml version="1.0" standalone="no"?>
<!DOCTYPE svg PUBLIC "-//W3C//DTD SVG 20010904//EN"
 "http://www.w3.org/TR/2001/REC-SVG-20010904/DTD/svg10.dtd">
<svg version="1.0" xmlns="http://www.w3.org/2000/svg"
 width="200.000000pt" height="200.000000pt" viewBox="0 0 200.000000 200.000000"
 preserveAspectRatio="xMidYMid meet">
<metadata>
Created by potrace 1.11, written by Peter Selinger 2001-2013
</metadata>
<g transform="translate(0.000000,200.000000) scale(0.100000,-0.100000)"
fill="#000000" stroke="none">
<path d="M899 1996 c-2 -2 -25 -6 -50 -9 -315 -38 -631 -282 -766 -592 -71
-164 -98 -386 -68 -562 69 -393 358 -703 750 -804 129 -33 341 -33 470 0 329
85 587 316 704 632 75 200 77 457 6 666 -17 51 -101 217 -119 236 -6 7 -26 33
-45 57 -51 67 -90 106 -151 153 -30 23 -57 45 -60 48 -12 13 -130 77 -190 102
-111 46 -215 68 -351 73 -69 2 -128 2 -130 0z"/>
</g>
</svg>
